<svg xmlns="http://www.w3.org/2000/svg" width="3000" height="746" viewBox="0 0 3000 746">
  <defs>
    <style>
      .cls-1 {
        fill: #fff;
        fill-rule: evenodd;
      }
    </style>
  </defs>
  <path id="Preenchimento_de_Cor_1" data-name="Preenchimento de Cor 1" class="cls-1" d="M289,654c-0.027,25.242.959,52.38,1,79a110.464,110.464,0,0,0-12,11c-27.157.677-39.96-8.446-57-17-6.544-3.285-12.931-4.291-19-8-15.811-9.662-31.242-20.6-46-31C94.964,644.981,52.331,585.69,22,512L11,473l-1-14c-3.344-12.591-4.717-28.826-8-43L1,388c-1.384-6.391-1.463-18.609,0-25l1-23c5.247-21.889,6.885-47.47,14-69C56.326,148.972,140.553,68.386,256,21L319,5l23-1c4.808-1.078,11.7-2.907,16-4,12.684-3.228,47.077,1.683,57,4h14l37,5c19.253,5.462,37.7,12.623,55,19l12,2,22,13c13.413,6.709,25.8,11.31,38,19,66.147,41.7,116.509,106.837,148,183,4.825,11.669,4.882,24.216,9,37,9.1,28.262,13.99,59.63,14,98q-0.5,20-1,40c-5.3,23-5.224,46.009-12,68-4.839,15.706-12.682,31.563-19,46-8.157,18.637-14.64,36.578-25,53-5.773,9.151-14.785,16.443-21,25-27.716,38.156-60.51,70.779-101,96-10.3,6.417-22.408,8.639-33,15-12.762,7.664-27.877,16.031-43,21-5.446,1.79-16.028,1.745-20-1-5.453-1.674-7.437-5.56-11-9V646c0-14.353,3.254-28.035,0-41-3.091-12.315-6.384-29.229-13-39-3.982-5.881-9.573-6.719-11-16,8.7-4.757,23.79-2.871,35-6,20.027-5.59,41.806-11,58-21,33.906-20.939,57.729-50.288,71-92,2.62-8.236.855-17,3-26,13.519-56.735-3.022-112.15-33-141-0.537-11.348,3.571-18.1,6-29,3.651-16.383-2.584-41.57-6-53-2.488-8.326-1.075-18.121-9-21-7.551-5.818-21.652,1.642-28,4-16.9,6.279-33.651,10.1-48,19-7.131,4.421-13.324,13.566-22,16-7.8,2.189-18.036-3.414-24-5-18.223-4.847-37.351-3.676-57-8-14.155-3.115-45.451.564-56,3-11.877,2.742-22.96.887-34,4-7.266,2.049-11.49,5.659-21,6-17.214-16.435-49.007-28.379-74-37-8.444-2.913-26.285-7.723-30,2-5.621,7.97-14.318,51-11,65,2.59,10.932,6.867,19.584,7,33-8.559,6.609-12.223,18.5-18,28-5.732,9.421-12.32,20.725-16,32-10.565,32.367-3.546,88.516,6,117,14.217,42.422,46.228,72.853,86,90,8.931,3.85,17.286,4.856,27,8,13.506,4.372,28.641,9.526,46,10,1.225,2.281,1.638,2.251,2,6-8.343,6.6-16.072,21.441-20,32-2.831,7.61-.486,16.388-7,20l-25,4c-11.617,3.188-25.3,1.15-35-2-14.33-4.652-29.106-8.176-37-19-18.518-25.391-34.373-64.49-82-54a16.935,16.935,0,0,0-2,6,157.214,157.214,0,0,1,48,49c12.712,20.463,17.564,43.385,38,56C215.577,660.554,254.815,654.151,289,654Zm925-526c60.12-.972,146.13.713,174,30,0.2,10.617-2.89,15.519-5,23q-1.995,12.5-4,25c-3.52,12.522-6.87,27.26-10,40a48.592,48.592,0,0,1-15,2c-7.83-6.076-32.78-9.406-44-12l-30-1c-9.3-2-24.01-.849-32,1h-20c-9.44,2.2-19.37,4.347-28,8-46.9,19.854-56.54,63.312-69,118q-0.495,13-1,26c-1.2,5.69-1.23,16.308,0,22,2.94,13.573-.08,26.458,3,39,5.3,21.546,11.26,41.35,19,59,5.84,13.31,12.96,27.04,24,35,22.73,16.385,84.42,26.779,119,13a18.3,18.3,0,0,0,1-6c2.44-3.914,2-20.591,2-27q-0.495-32-1-64c-0.67-.333-1.33-0.667-2-1-9-6.852-51.36-2.137-67-2-1.71-2.725-2.54-2.5-3-7-2.85-4.557-1-17.415-1-24V362c12.28-7.7,34.94-4.019,53-4h85c15.51,0,29.26-1.664,43,1,8.72,19.288,3.19,57.724,3,82V626a357.411,357.411,0,0,1-92,37c-19.58,4.917-71.46,5.464-92,1l-20-1c-16.96-3.8-34.2-5.82-50-11-54.63-17.908-93.65-52.793-115-104-6.84-16.4-7.92-33.493-13-52-7.7-28.027-15.01-80.616-8-115,0.49-2.409-.82-5.135-1-6q0.5-16,1-32c4.89-22.569,4.15-45.226,11-66,18.97-57.5,54.18-110.361,108-133,14.96-6.292,33.49-9.271,50-13C1196.88,128.768,1207.24,132.707,1214,128Zm928,207c2.35-19.96,1-42.443,1-65V151a24.823,24.823,0,0,0,5-4h66c12.12-.013,23.71-1.187,34,1,7.37,11.829,4,25.435,4,43V612c0,13.594,1.27,30.094-1,42l-3,1c-5.24,3.293-20.57,1-28,1-24.16,0-53.78,3.38-76-1-0.96-1.766-1.26-1.68-2-4-2.07-3.341-1-11.911-1-17V592c0-50.166,2.11-101.511,1-152a28.894,28.894,0,0,0-9-1c-4.91-3.055-29.01-1-37-1-32.55,0-67.04.537-98,1-1,2.893-1.06,7.674-1,12-2.89,4.688-1,45.582-1,55v98c0,16.417,1.76,36.332-1,51h-2c-5.24,3.293-20.57,1-28,1-24.16,0-53.78,3.38-76-1-0.96-1.766-1.26-1.68-2-4-3.72-6.01-1-23.659-1-32V257c0-24.442.28-51.187-1-74-0.42-7.444-.72-25.619,2-30,3.05-8.539,15.85-6,27-6h78c7.48,8.424,4,34.875,4,50V332c0.8,1.021.35,0.274,1,2l3,1c8.19,5.485,27.24,1.011,38,1C2071.96,335.964,2109.83,338.827,2142,335Zm529-188h67c11.72,0,25.92-.938,36,1,5.5,9.789,4.27,30.133,3,44v82c0,14.216-1.86,32.986,2,44,3.97-1.109,5.8-3.659,9-5,12.97-5.435,27.6-8.479,41-12,40.48-10.641,91.47-.534,115,16,73.87,51.908,69.45,243.145,16,315-26.38,35.466-106.12,42.778-159,25a266.542,266.542,0,0,1-33-14c-4.99-2.486-8.88-6.761-15-8-0.33,1-.67,2-1,3-2.94,4.38-1.06,14.683-6,17h-77c-1.71-2.725-2.54-2.5-3-7-4.35-7.022-.04-23.893,0-32V260c0-28.915-3.92-65.458,2-91C2670.23,159.362,2666.91,154.285,2671,147ZM1504,158c39.57-.6,53.59,13.458,65,41,5.02,12.122,7.95,36.537,1,50-9.43,18.267-28.73,29.619-51,35-14.04,3.393-25.27-4.419-33-8-27.68-12.816-46.19-44.453-31-84,4.32-11.247,17.95-24.4,29-29C1490.16,160.436,1499.02,161.671,1504,158Zm156,52h69c12.34,0,27.31-1.053,38,1,2.59,7.817,1,21.389,1,31v64c0.67,0.333,1.33.667,2,1,4.11,3.119,13.91,2,21,2h50c0.33,0.667.67,1.333,1,2,3.54,4.682,2,17.119,2,25v62c-0.67.333-1.33,0.667-2,1-9.49,7.257-56.14,2.356-71,2-0.33.667-.67,1.333-1,2-6.17,8.019-2,48.467-2,64,0,30.236-5.26,88.226,12,100,14.09,9.615,39.53,6.288,61,6,1.71,2.725,2.54,2.5,3,7,7.62,10.828,2.13,57.587,2,74-32.38,18.634-110.47,15.088-141-3-13.42-7.949-26.05-19.587-34-33-7.93-13.39-9.19-31.565-13-49-1.28-5.864-.01-14.376-1-19V444c0-8.206,2.12-32.925-1-38-1.19-3.6-1.51-3.657-6-4-7.09-4.608-34.22-1.145-46-1-0.33-1-.67-2-1-3-3.17-3.681-2-13.28-2-20V327c14.77-9.094,37.97-9.1,55-17,2.22-20.988,1-46.344,1-69C1657,229.918,1655.95,216.739,1660,210Zm858,98,57,1c15.58,0,31.03-1.4,43,1,1.97,5.983,1,16.348,1,24V568c-2.84,4.589-1,17.392-1,24,0,20.187,2.43,44.638-1,63h-2c-3.09,2-11.18,1-16,1-11.55,0-50.44,2.53-55-3-2.64-3.6-2.25-10.485-5-14-1.29-.877-2.47-0.894-5-1-5.48,5.08-14.73,6.828-22,10-11.65,5.084-23.84,11.386-38,15-9.15,2.337-17.19-.107-27,2-43.49,9.336-108.53-9.7-124-31-26-35.8-26-94.976-26-157V352c0-13.063-3.01-38.89,6-43h102c1.02,0.8.27,0.355,2,1,7.32,13.183,3.03,39.165,3,57V500c0,21.867-2.02,47.715,7,61,14.06,20.708,56,13.837,76,4,6.24-3.067,11.57-2.1,14-9,2.89-4.18,2-13.012,2-20V374c0-20.183-2.52-43.5,1-62a18,18,0,0,0,4-3C2516.33,308.805,2516.83,308.807,2518,308Zm-1057,1h103c1.71,2.725,2.54,2.5,3,7,3.05,4.948,1,18.956,1,26V652a24.823,24.823,0,0,0-5,4c-23.4.314-49.15,1-74,1-10.51,0-24.44,1.121-29-5-8.37-10.94-3-53.4-3-71V336c0-6.169-1.62-17.775,1-22C1458.88,311.28,1459.71,311.061,1461,309Zm1371,80c-5.46,3.574-12.13,1.091-20,3-9.3,2.256-31.19,8.384-34,16-4.01,6.126-3,29.8-3,40q0.495,34.5,1,69c0,16.635-2.04,31.457,3,44,18.68,8.629,52.2,22.226,79,12,11.99-4.576,20.58-17.894,25-30,14.75-40.428,6.89-125.374-19-144C2855.95,393.21,2844.27,390.325,2832,389Z"/>
</svg>
