<svg xmlns="http://www.w3.org/2000/svg" width="3000" height="819" viewBox="0 0 3000 819">
  <defs>
    <style>
      .cls-1 {
        fill: #016799;
      }

      .cls-1, .cls-2 {
        fill-rule: evenodd;
      }

      .cls-2 {
        fill: #fff;
      }
    </style>
  </defs>
  <path id="Preenchimento_de_Cor_3" data-name="Preenchimento de Cor 3" class="cls-1" d="M2256,17h631c35.72,0,59.62-1.159,80,14,30.47,22.66,21,102.941,21,156V622c0,52.392,9.29,147.631-20,169a79.535,79.535,0,0,1-27,13c-13,3.317-31.29,1-46,1H2291c-16.76,0-36.16,1.79-49-3-11.27-4.2-23-13.331-29-23-9.33-15.02-8-39.055-8-64V105c0-17.143-2.32-39.361,3-52,5.89-13.987,18.9-26.191,33-32C2245.86,19,2252.18,19.863,2256,17Zm125,133c-4.94,2.924-18.13,1.825-24,4-14.18,5.251-29.12,17.5-35,31-18.54,42.558,8.64,75.369,41,85,6.64,1.977,19.01,5.259,29,3,22.89-5.174,41.56-13.707,51-32C2467.24,194.024,2429.32,149.522,2381,150Zm243,172c-26.02-3.152-57.23-1-85-1-9.04,0-25.46-2.189-31,2-3.16,5.126-1,19.739-1,27V673c0.75,1.073.6,0.946,1,3,17.4,2.013,38.96,1,58,1s40.6,1.009,58-1c1.92-17.754,1-39.6,1-59V517c0-43.644-1.96-69.954,20-92,11.22-11.261,32.93-24.635,58-18,19.8,5.24,32.65,17.45,40,35,6.92,16.515,6,40.18,6,63V655c0,6.918-.99,16,2,20v1c25.7,3.115,56.56,1,84,1,9.04,0,25.46,2.189,31-2h1c4.36-36.334,1-78.833,1-117,0-108,2.57-184.265-65-226-22.82-14.1-66.66-26.451-104-16-19.68,5.508-34.79,14.276-49,25-7.66,5.782-15.71,22.771-24,26v-1C2622.62,360.588,2624.85,329.909,2624,322ZM2325,676c21.24,2.475,47.07,1,70,1,14.52,0,32.19,1.462,45-1,0.33-1,.67-2,1-3,3.06-4.943,1-18.959,1-26V413c0-29.759,2.23-62.988-1-91-26.63-3.31-58.61-1-87-1-8.32,0-25.72-2.4-29,3-3.06,4.943-1,18.959-1,26V585C2324,614.759,2321.77,647.988,2325,676Z"/>
  <path id="Preenchimento_de_Cor_2" data-name="Preenchimento de Cor 2" class="cls-2" d="M444,150c33.694-.557,58.059,11.186,68,34,18.506,42.469-7.8,78.844-40,88l-21,1c-41.532,0-58.172-18.1-66-52-2.4-10.414-.578-25.627,3-34,6.536-15.293,20.344-26.757,36-33C429.678,151.736,438.719,153.191,444,150Zm1928,0c37.15-.611,57.45,8.592,71,31,23.54,38.924-6.88,80.422-37,90-7.12,2.265-15.05,2-24,2-39.36-.018-64.99-21.6-65-61,0-9.665.17-17.146,3-24,6.46-15.657,19.33-27.574,35-34Q2363.505,152,2372,150ZM137,568c22.228,2.517,49.08,1,73,1H343c2.845,8.613,1,23.541,1,34v73c-8.1,2.658-22.1,1-32,1H19c-4.812-9.445-2-30.922-2-44V163c7.783-3.987,24.839-2,36-2h82q0.5,1.5,1,3c2.557,4.448,0,21.913,0,30V465C136,498.683,133.391,536.088,137,568ZM974,161h116c2.4,7.3,1,19.942,1,29V449a2.909,2.909,0,0,1,1,1c1.75-.631.97-0.193,2-1,11.36-11.434,18.64-27.644,28-41,16.96-24.2,36.02-47.938,53-72,7.37-10.44,13.5-20.851,22-30h96c13.28,0,32.73-2.722,44,1-0.63,1.754-.19.971-1,2-4.15,11.79-25.27,26.778-33,37-20.44,27.04-46.58,48.97-67,76-6.47,8.568-29.84,26.114-31,37,13.61,13.778,22.75,32.985,34,49,24.52,34.893,49.29,69.737,74,105,10.19,14.547,20.59,29.142,31,44,4.11,5.871,10.94,10.149,12,19-11.54,3.8-31.43,1-45,1h-98c-30.55-49.145-60.73-100.026-92-149-1.75.631-.97,0.193-2,1-4.57,2.181-26.48,29.721-28,35V676c-9.41,3.106-25.69,1-37,1H974q-0.5-1.5-1-3c-3.935-6.368-1-25.224-1-34V198C972,186.187,970.292,169.551,974,161Zm996,0h115c4.39,8.621,2,27.874,2,40V628c2.48,3.976.15,12.363,1,18,1.26,8.4,1.83,21.224,2,30-8.61,2.846-23.54,1-34,1h-70c-1.44-2.67-1.99-4.221-2-9-6.08-10.139,1.73-31.478-5-41-1.07-.752-0.95-0.6-3-1-3.6,11.179-14.3,20.524-23,27-5.25,3.906-10.29,9.479-16,13-26.66,16.443-82.1,26.928-122,14-66.11-21.421-99.29-70.833-116-142-4.39-18.685-4.21-60.648,0-79v-9c3.01-13,5.11-27.029,10-39,18.8-45.995,45.55-76.455,89-98,19.66-9.751,63.29-21.52,96-14,16.26,3.739,33.37,7.191,46,15,5.54,3.426,11.64,7.939,17,12,4.05,3.064,4.57,7.982,10,10v-1c3.3-5.38,1-32.306,1-41V201C1968,188.865,1965.62,169.633,1970,161ZM1431,529c-1.53,15.239,6.96,25.564,14,35,19.33,25.9,76.95,43.286,126,32h12c12.84-3.049,27.34-3.915,40-8,4.19-1.351,12.22-5.605,16-4l3,1c1.44,25.97,13.09,49.135,14,76-22.51,12.325-52.18,14.6-81,21l-26,1c-31.37,6.686-79.42-.056-104-8-58.11-18.775-94.9-47.723-117-102-6.27-15.391-5.86-30.24-10-49-4.78-21.69-3.32-55.939,2-76,5.47-20.647,11.84-42.321,22-59,23.17-38.048,53.14-64.528,97-82,9.11-3.63,17.81-3.343,28-6,19.26-5.02,54.12-7.248,76-2,13.31,3.192,27.02,5.929,39,11,31.54,13.349,51.77,36.045,69,64,17.13,27.792,26,61.764,26,107,0,13.352,1.43,39.236-4,47-6.34,3.941-25.24,1-34,1h-90c-5.96-3.728-23.7-1-32-1C1488.9,528,1457.36,525.843,1431,529ZM564,322H682c3.648,10.906,1.084,30.082,1,43h1v1h1v-1c8.8-6.276,13.273-18.454,22-25a161.386,161.386,0,0,1,37-21c25.169-10.016,70.092-7.155,93,2,33.412,13.353,55.321,31.394,71,62,21.611,42.186,17,111.53,17,175v77c0,13.284,1.209,29.4-1,41-9.41,3.106-25.693,1-37,1H808c-5.383-10.55-2-44.69-2-60V473c-3.413-5.508-1.887-15.526-4-22-4.211-12.9-10.8-24.979-20-33-23.57-20.553-61.792-9.215-79,8-22.915,22.925-20,49.721-20,95V675c-7.783,3.987-24.839,2-36,2H565c-2.92-8.893-1-24.248-1-35V322Zm2151-9c76.34-.554,116.83,24.267,139,77,13.85,32.956,14,76.987,14,124V675c-7.78,3.987-24.84,2-36,2h-81c-5.25-10.285-2-43.06-2-58V479c-2.62-4.408-.55-13.75-2-19-4.29-15.519-9.11-29.195-19-39-25.2-24.994-62.21-14.822-83,6-22.16,22.186-20,50.085-20,94V676c-9.41,3.106-25.69,1-37,1h-80c-2.83-8.627-1-23.53-1-34V327c-1.21-2.111-.48-2.232,0-5,9.41-3.106,25.69-1,37-1h80c3.73,11.172,1.08,30.8,1,44h1v1h2c12.24-20.357,31.95-36.578,55-46,6.65-2.72,15.27-4.33,22-6C2708.6,313.107,2712.59,314.515,2715,313Zm-390,8h116c2.92,8.893,1,24.248,1,35V675c-7.78,3.987-24.84,2-36,2h-81c-2.67-8.088-1-22.1-1-32V345C2324,337.35,2323.03,326.98,2325,321ZM392,322H508c1.121,2.091,1.434,1.832,2,5-3.053,4.952-1,18.953-1,26V652c0,8.633,1.022,17.963,0,24-9.41,3.106-25.693,1-37,1H393c-3.256-6.373-2-19.487-2-29V347C391,339.071,389.943,328.241,392,322Zm1104,52c-3.28,2.08-7.52.707-12,2-5.1,1.473-12.43,4.173-17,7-19.9,12.3-34.74,35.281-38,64,11.01,3.63,29.99,1,43,1h92c1.02-.8.27-0.355,2-1a25.259,25.259,0,0,0,1-8c-4.16-6.751-2.99-17.84-6-25C1550.8,389.708,1530.88,373.725,1496,374Zm396,13c-6.85,4.179-17.81,2.959-25,6-24.15,10.209-37.74,33.778-46,60-2.53,8.041-1.02,14.732-3,24-10.22,47.879,16.34,92.473,44,107,9.06,4.756,26.11,12.633,42,9,28.29-6.468,49.79-19.934,59-45,5.47-14.888,5-34.127,5-54,0-15.56,2.56-35.207-1-49C1958.23,411.039,1935.08,386.644,1892,387Z"/>
</svg>
