<svg xmlns="http://www.w3.org/2000/svg" width="3000" height="966" viewBox="0 0 3000 966">
  <defs>
    <style>
      .cls-1 {
        fill: #fff;
        fill-rule: evenodd;
      }
    </style>
  </defs>
  <path id="Preenchimento_de_Cor_1" data-name="Preenchimento de Cor 1" class="cls-1" d="M1449,443l-80,1c-8.06,0-23.84-2.233-27,3-8.99,9.842-1.42,28.967-5,45-9.27,41.56-4.45,108.781,22,125,24.94,15.3,62.72-.928,71-21,3.33-8.068,1.22-17.315,1-27,14.97-8.471,27.74-19.984,42-29,10.45-6.606,22.01-10.841,32-18,5.57-3.989,23.65-21.958,31-19,6.52,2.778,7.24,12.266,10,19,4.94,12.067,10.43,26.383,14,40q0.495,8,1,16c2.99,13.741,3.13,36.317,0,50-3.71,16.2-4.12,28.764-10,42-16.69,37.586-56.06,56.649-97,70-21.24,6.927-74.75,12.993-102,6-45.93-11.788-97.54-44.784-119-81-6.33-10.675-9.68-26.388-13-39-8.21-31.194-9-78.395-9-116,0-20.153,2.5-44.684-1-63-2.45-.85-6.18-1.039-10-1-5.49,3.319-16.74.069-23,0l-43,2-22-1c-2.93,1.027-5.46,5.3-8,7-10.86,7.282-22.75,11.878-34,19-7.5,4.751-11.18,12.3-23,13-9.2-17.059-17.73-36.106-34-46-29.451-17.91-50.659,23.116-57,43-4.152,13.019-4.112,29.079-7,42v19c-3.612,16.261-4.8,43.665-1,61v39q2.5,35.5,5,71c-16.212.022-33.842,2.716-48,6l-34,4c-23.293,5.6-49.408,7.689-77,8-2.212-22.26-4.314-46.761-9-68-2.907-13.176.91-26.627-3-37h-2c-29.88,50.541-73.026,86.335-134,106-21.616,6.971-62.87,11.7-89,4-15.084-4.446-30.738-8.417-43-16-44.834-27.725-62.944-77.091-76-137V568c0-24.3,2.229-45.142,8-63,3.4-10.517,3.878-20.256,8-30,4.567-10.794,13.472-20,20-29,26.151-36.057,60.13-61.553,104-80,20.35-8.557,57.194-20.117,89-13,27.956,6.255,52.959,12.061,75,24,6.94,3.759,15.472,8.25,22,13,4.723,3.437,6.452,10.393,13,12v-2c2.712-4.2,1.011-12.313,1-20q-1-23-2-46c2.725-1.708,2.5-2.536,7-3,7.455-5.063,19.324-.5,30-3,9.206-2.153,22.816-2.768,33-5h10c13.94-3.3,29.73-6.426,47-7,4.975,7.562,12.886,12.566,19,19,6.138-.267,7.781-2.579,12-4l17-3,27-9c15.059-4.907,34.54-4.273,51-8,13.66-3.092,42.61,6.866,52,11,5.02,2.209,6.38,5.549,14,6,0.97-8.166-1.27-14.433-2-23,3.43-1.833,8.03-2.115,14-2,7.36,5.105,22.55-.232,33,2,6.19,1.323,16.58-.661,24,1,13.32,2.98,30.89,4.852,47,3,1.69-14.168,1.89-33.586-1-47q-0.495-17.5-1-35-1.995-32-4-64c27.62-15.017,57.97-25.8,88-39,16.99-7.47,30.78-19.528,51-24,0.33,0.667.67,1.333,1,2,4.37,5.887,2.13,36.338,2,47a142.124,142.124,0,0,1-3,26q0.495,12.5,1,25v63c-0.03,9.356-4.25,48.145,2,52,7.18,4.642,15.95-1.046,25,1,9.61,2.173,22.77.9,36,1,12.29,0.1,26.34,1.051,40,1v1h1C1450.62,357.594,1449.02,401.5,1449,443ZM2477,118c43.39-.963,80.55,16.123,92,47,11.16,30.112-9.37,57.1-20,73-4.88,7.3-8.49,14.491-17,18-12.37,5.1-32.83,2.917-45,0l-17-2c-20.15-7.34-49.76-39.9-41-75,4.57-18.3,11.53-41.323,25-51C2460.37,123.425,2471.28,123.254,2477,118Zm-72,262c8.05-.286,27.43-9.8,35-13,27.57-11.638,54.55-21.006,82-33,14.7-6.423,26.19-17.678,46-19,1.37,2.542,1.92,3.5,2,8,3.95,6.5.98,41.5,1,52a143.3,143.3,0,0,0,4,32c3.29,14.221-.8,29.96,2,43,2.65,12.313-2.58,28.17,1,39h2c5.31-20.531,17.19-34.262,28-49,29.77-40.577,83.15-73.046,140-87,10.74-2.637,29.65-2.24,40,0l19,1c23.61,5.79,48.29,12.455,67,24,33.87,20.9,51.61,50.384,63,94,8.72,33.416,1.48,79.448-7,106-3.89,12.186-4.33,23.362-9,34-20.9,47.576-79.81,98.061-129,118-12.64,5.124-27.34,7.9-41,11-19.32,4.385-46.84.537-62-4-54.08-16.189-79.69-36.341-102-84h-1v1c-4.03,6.422,1,26.934,1,36,0.01,34.382,2.69,63.181,3,97-4.5,2.381-12.67,2.125-20,2-7.5,4.579-21.35-.078-31,2-9.42,2.03-22.58.975-32,3h-20c-12.53,2.7-28.21,2.941-42,3,0.11-25.353,1.66-53.268-3-74-3.1-13.77,2.05-29.439-1-43-3.08-13.694,2.64-27.726,0-40V617c0-23.705,2.49-46.709-2-67V529c0-12.8-.77-26.668-1-38-0.29-14.309,2.07-26.732-2-37a21.474,21.474,0,0,0-7-1c-5.06,3.648-14.29,1.932-18,7-4.56,5.969-.22,17.439,0,26q1.995,33.5,4,67c0.04,89.377,14.51,166.72,15,257l-145,8a128.266,128.266,0,0,0-3-30c-2.87-12.37.34-28.895-2-39V728c-0.01-14.507-.25-32.387-3-45V647c-4.26-19.417-.91-47.112-5-68h-2c-2.88,25.258-16.32,43.388-28,60-31.32,44.537-71.64,78.556-129,97-25.33,8.146-77.91,7.265-101-2-61.73-24.77-85.55-66.3-103-135-6.97-27.435.22-76.028,7-97,4.17-12.887,5.58-25.438,12-36,29.75-48.975,78.88-88.74,138-108,82.03-26.724,170.92,19.294,196,73h2v-2c3.59-5.685-.48-35.826-1-45-0.89-15.742-.71-35.826-4-51-2.22-10.234-.07-21.07-2-30-0.89-4.135.45-10.423,1-13,1.97-9.254-.55-21.384-2-28-2.54-1.372-3.5-1.917-8-2-5.68,4.962-28.17,7.947-39,8-0.09-13.376,4-23.956,7-34,4.31-14.424,5.34-31.636,9-45,26.73-11.757,55.22-23.364,82-35,12.25-5.324,24.35-8.017,36-14,7.28-3.736,34.27-20.785,43-17,4.35,1.816,3.33,8.989,3,15,2.39,3.952-.18,11.554,1,17,2.8,12.943-1.11,30.846,2,44,4.9,20.719,1.24,48.906,6,71v33C2403,325.965,2401.89,353.654,2405,380Zm-558-19V485c-14.18-.083-34.52-0.909-48,2-14.27,3.078-30.57-.443-43,2-0.33,1-.67,2-1,3-3.09,4.648-2.43,16.369-2,24,0.96,17.233,1,38.161,1,57v68a73.331,73.331,0,0,1,2,17c0.01,13.662-.06,25.059,0,38v18c1.89,8.767-1.16,21.985,1,32,2.62,12.151,4.2,35.184,2,47-12.69,7-22.51,1.376-38,5-13.75,3.217-31.78,1.471-47,5a323.718,323.718,0,0,1-73,9q-3.495-64.993-7-130V665c0-15.342,1.08-34.728-2-49V581c-0.56-26.719,1.87-63.859-3-89l-3-1c-3.85-2.41-14.28-1-20-1h-52c-1.15-20.438-3.59-44.6-8-64l-3-35a196.256,196.256,0,0,1-6-46c3.43-1.833,8.03-2.115,14-2,4.91,3.385,12.72.366,20,2,8.54,1.917,19.75.725,30,3,9.98,2.214,22.03,6.021,33,4,0.33-1,.67-2,1-3,2.4-4.03-.17-10.316-1-14-2.27-10.08-2.33-31.775,0-42,8.22-36.109,21.24-67.22,40-93,7.27-10,21.35-16.286,32-23,36.03-22.706,79.93-35.163,129-46h52c55.32,0.011,91.64,22.4,113,57,5.97,9.672,12.81,20.834,13,36-13.29,8.1-25.12,18.809-38,27-12.57,7.99-25.7,13.816-38,22-11.34,7.544-21.07,20.587-37,23-13.21-23.858-41.38-71.8-74-38a52.783,52.783,0,0,0-10,15c-7.05,16.848-10.03,39.267-12,60-0.73,7.645-3.42,22.72,2,26,5.95,4.591,14.76,2.016,24,2h57Zm284-213h5c6.7,11.886,15.91,21.792,23,33,9.01,14.26,16.01,28.765,25,43,7.32,11.581,20.55,19.847,23,36-15.05,8.172-36.84,5.6-56,11-13.81,3.893-31.14,6.437-46,10-10.81,2.591-19.67,1.232-30,4-24.83,6.653-45.52,13.731-76,14-8.09-13.1-34.98-43.649-34-58,14.5-7.89,28.22-17.541,42-26,9.36-5.745,19.55-8.253,29-14,13.72-8.342,28.51-16.74,42-25,12.14-7.431,25.34-12.9,37-20C2120.22,152.823,2126.77,152.064,2131,148ZM330,150c77.406-1.314,122.545,12.173,154,57,8.171,11.644,24.174,29.5,18,54-15.606,61.917-64.107,103.14-98,148l-19,18-39,40c-7.2,7.19-20.212,10.6-21,24,8.528,9.588,7.585,30.677,12,44,11.308,34.126,20.838,73.329,32,107,3.694,11.145,4.025,21.408,8,32,1.337,3.563,6.249,8.433,4,15-2.354,6.875-15.222,10.135-21,14-14.384,9.622-28.7,20.583-43,31-6.865,5-9.955,11.547-20,14-17.937-31.537-23.6-74.056-38-109-26.1-63.309-47.921-131.519-72-196-9.86-26.4-16.819-54.217-27-79-4.957-12.067-5.812-24.314-12-34-12.394,6.684-15.474,26.861-33,28-6.3-16.825-13.476-32.133-20-48L77,253c-2.829-6.721-16.435-30.092-14-36,4.6-8.183,37.348-12.618,48-17,42.458-17.465,93.64-29.009,140-41,19.065-4.931,40.1-2.945,59-8C316.171,149.35,325.355,152.915,330,150Zm-1,134c-4.77,3.108-12.574,1.249-19,3-12.76,3.477-36.151,9.541-38,24,4.39,6.482,4.334,14.771,7,23,6.183,19.085,11.331,39.293,16,60,1.766,0.961,1.68,1.257,4,2,4.552-6.783,13.13-10.526,18-17,14.743-19.6,31.091-36.55,45-57,2.9-4.263,18.806-22.895,12-32C369.711,284.263,340.731,283.86,329,284ZM2140,412c-3.99,2.692-9.06.5-15,2-9.2,2.317-21.08,6.221-29,11-23.42,14.124-66.39,56.587-48,98,3.95,8.882,14.36,19.534,22,25,7.28,5.207,17.56,9.639,26,13,49.68,19.789,83.82-25.414,95-59,5.16-15.512,10.96-41.475,4-61-1.75.631-.97,0.193-2,1-3.46,5.025-3.82,11.854-7,17-7.77,12.565-17.36,21.1-30,29-5.25,3.283-13.6,10.507-24,8-3.25-.782-6.88-2.433-11-3-3.34-4.74-8.97-7.975-11-14-7.3-21.612,7.48-49.427,18-57,4.88-3.511,12.08-3.455,14-10h-2Zm663,0c-43.12,4.347-71.02,26.771-89,56-16.78,27.278-8.77,60.859,13,77,8.61,6.379,19.55,11.851,30,16,19.06,7.565,42.61,2.769,56-6,30.24-19.8,54.05-62.889,43-114h-3c-5.8,24.047-21.42,40.494-42,50-6.5,3-21.71,6.949-30,2-9.36-5.59-14.29-23.235-10-39,4.78-17.573,14.81-33.792,32-39v-3ZM661,413c-2.652,1.667-6.527.877-10,2l-24,10c-24.2,14.97-71.145,61.491-46,102a80.338,80.338,0,0,0,23,23,139.092,139.092,0,0,0,29,13c46.94,15,75.094-27.6,87-56,4.523-10.791,11.137-28.425,8-43-1.672-7.765,1.678-16.771-2-22-1.073-.752-0.946-0.6-3-1-5.352,22.573-22.514,42.577-42,51-10.6,4.581-29.786,4.2-36-4-11.561-15.258-.689-54.826,10-63,5.44-4.16,14.266-5.182,17-12H661Z"/>
</svg>
